<svg id="Logo" xmlns="http://www.w3.org/2000/svg" viewBox="0 0 283.46 158.74"><defs><style>.cls-1{fill:#e14243;}.cls-2{fill:#575756;}</style></defs><title>Zeichenfläche 1</title><g id="CCC_REAL_ESTATE" data-name="CCC REAL ESTATE"><path class="cls-1" d="M18.25,105.58a1.25,1.25,0,0,1,.42.08,1.15,1.15,0,0,1,.39.27l2.3,2.42a9.57,9.57,0,0,1-3.78,3,13.3,13.3,0,0,1-5.39,1,12.71,12.71,0,0,1-5.1-1,10.85,10.85,0,0,1-3.83-2.68,11.69,11.69,0,0,1-2.42-4.05A15,15,0,0,1,0,99.54,14,14,0,0,1,.91,94.4a12.1,12.1,0,0,1,2.56-4.05,11.52,11.52,0,0,1,4-2.64,13.18,13.18,0,0,1,5.06-.94,14.07,14.07,0,0,1,2.66.24,13.36,13.36,0,0,1,2.32.69,10.56,10.56,0,0,1,2,1.06,10.7,10.7,0,0,1,1.61,1.34l-2,2.62a2.29,2.29,0,0,1-.44.44,1.2,1.2,0,0,1-.73.2,1.34,1.34,0,0,1-.58-.14,6,6,0,0,1-.58-.33l-.68-.43a4.81,4.81,0,0,0-.88-.43A8.08,8.08,0,0,0,14,91.69a8.23,8.23,0,0,0-1.59-.13,6.28,6.28,0,0,0-2.63.53,5.7,5.7,0,0,0-2.07,1.55,7.42,7.42,0,0,0-1.34,2.51,11.34,11.34,0,0,0-.47,3.39A10.32,10.32,0,0,0,6.47,103a7.55,7.55,0,0,0,1.42,2.51A6,6,0,0,0,10,107a6.32,6.32,0,0,0,2.57.53,12.48,12.48,0,0,0,1.44-.08,7.31,7.31,0,0,0,1.22-.25,5.48,5.48,0,0,0,1.07-.49,6.51,6.51,0,0,0,1-.76,2.11,2.11,0,0,1,.45-.28A1.07,1.07,0,0,1,18.25,105.58Z"/><path class="cls-1" d="M40.18,105.58a1.24,1.24,0,0,1,.41.08,1,1,0,0,1,.39.27l2.3,2.42a9.5,9.5,0,0,1-3.78,3,13.26,13.26,0,0,1-5.39,1,12.71,12.71,0,0,1-5.1-1,10.94,10.94,0,0,1-3.83-2.68,11.67,11.67,0,0,1-2.41-4.05,14.74,14.74,0,0,1-.85-5.09,14.23,14.23,0,0,1,.91-5.14,12.1,12.1,0,0,1,2.56-4.05,11.61,11.61,0,0,1,3.95-2.64,13.26,13.26,0,0,1,5.07-.94,14,14,0,0,1,2.65.24,13.48,13.48,0,0,1,2.33.69A10.64,10.64,0,0,1,43,90.1l-2,2.62a2.29,2.29,0,0,1-.44.44,1.16,1.16,0,0,1-.72.2,1.27,1.27,0,0,1-.58-.14,6.05,6.05,0,0,1-.59-.33L38,92.46a4.7,4.7,0,0,0-.87-.43A8.63,8.63,0,0,0,36,91.69a8.23,8.23,0,0,0-1.59-.13,6.28,6.28,0,0,0-2.63.53,5.59,5.59,0,0,0-2.06,1.55,7.09,7.09,0,0,0-1.34,2.51,11,11,0,0,0-.48,3.39,10.32,10.32,0,0,0,.53,3.42,7.39,7.39,0,0,0,1.43,2.51,5.92,5.92,0,0,0,2.1,1.56,6.36,6.36,0,0,0,2.57.53,12.79,12.79,0,0,0,1.45-.08,7.18,7.18,0,0,0,1.21-.25,5.48,5.48,0,0,0,1.07-.49,6.51,6.51,0,0,0,1-.76,2.11,2.11,0,0,1,.45-.28A1.11,1.11,0,0,1,40.18,105.58Z"/><path class="cls-1" d="M62.11,105.58a1.24,1.24,0,0,1,.41.08,1,1,0,0,1,.39.27l2.3,2.42a9.5,9.5,0,0,1-3.78,3,13.26,13.26,0,0,1-5.39,1,12.71,12.71,0,0,1-5.1-1,10.85,10.85,0,0,1-3.83-2.68,11.52,11.52,0,0,1-2.41-4.05,14.74,14.74,0,0,1-.85-5.09,14.23,14.23,0,0,1,.91-5.14,12.1,12.1,0,0,1,2.56-4.05,11.61,11.61,0,0,1,4-2.64,13.19,13.19,0,0,1,5.07-.94A14,14,0,0,1,59,87a13.48,13.48,0,0,1,2.33.69,10.64,10.64,0,0,1,3.6,2.4l-2,2.62a2.29,2.29,0,0,1-.44.44,1.16,1.16,0,0,1-.72.2,1.35,1.35,0,0,1-.59-.14,6,6,0,0,1-.58-.33L60,92.46a4.81,4.81,0,0,0-.88-.43,8.08,8.08,0,0,0-1.18-.34,8.23,8.23,0,0,0-1.59-.13,6.28,6.28,0,0,0-2.63.53,5.59,5.59,0,0,0-2.06,1.55,7.09,7.09,0,0,0-1.34,2.51,11,11,0,0,0-.48,3.39,10.32,10.32,0,0,0,.53,3.42,7.55,7.55,0,0,0,1.42,2.51A6,6,0,0,0,53.85,107a6.36,6.36,0,0,0,2.57.53,12.79,12.79,0,0,0,1.45-.08,7.18,7.18,0,0,0,1.21-.25,5.48,5.48,0,0,0,1.07-.49,6.51,6.51,0,0,0,1-.76,2.11,2.11,0,0,1,.45-.28A1.08,1.08,0,0,1,62.11,105.58Z"/><path class="cls-2" d="M96.16,112.06H90.9a2.23,2.23,0,0,1-2.09-1.1l-4.16-7.26A1.94,1.94,0,0,0,84,103a2.07,2.07,0,0,0-1-.22H81.49v9.26h-5.8V87h8.14a16.73,16.73,0,0,1,4.62.56,8.73,8.73,0,0,1,3.13,1.55,6,6,0,0,1,1.76,2.35,8,8,0,0,1,.55,3,7.85,7.85,0,0,1-.33,2.3,7.24,7.24,0,0,1-1,2A7.37,7.37,0,0,1,91,100.4a8,8,0,0,1-2.16,1.18,5.47,5.47,0,0,1,1.07.73,5.3,5.3,0,0,1,.89,1ZM83.83,98.8a5.91,5.91,0,0,0,2-.3,3.72,3.72,0,0,0,1.37-.83A3.24,3.24,0,0,0,88,96.42a4.72,4.72,0,0,0,.24-1.53,3.25,3.25,0,0,0-1.07-2.58,5,5,0,0,0-3.32-.93H81.49V98.8Z"/><path class="cls-2" d="M104.1,91.5v5.84H112v4.3H104.1v6h10.27v4.47H98.27V87h16.1V91.5Z"/><path class="cls-2" d="M140.38,112.06h-4.49a2,2,0,0,1-1.22-.35,2.28,2.28,0,0,1-.71-.91l-1.47-4.36H123l-1.48,4.36a2,2,0,0,1-.67.87,1.89,1.89,0,0,1-1.21.39h-4.54l9.69-25h5.94Zm-9.22-9.57-2.32-6.85q-.26-.65-.54-1.53c-.2-.59-.39-1.23-.59-1.92-.17.7-.35,1.35-.55,1.94s-.38,1.11-.55,1.55l-2.3,6.81Z"/><path class="cls-2" d="M157.43,107.42v4.64H142.36V87h5.8v20.38Z"/><path class="cls-2" d="M173.13,91.5v5.84H181v4.3h-7.86v6H183.4v4.47H167.29V87H183.4V91.5Z"/><path class="cls-2" d="M200.79,92.12a2.11,2.11,0,0,1-.54.62,1.19,1.19,0,0,1-.73.21,1.86,1.86,0,0,1-.85-.25l-1-.56a8.45,8.45,0,0,0-1.31-.56,5.51,5.51,0,0,0-1.69-.25,3.62,3.62,0,0,0-2.42.7,2.34,2.34,0,0,0-.8,1.88,1.73,1.73,0,0,0,.48,1.25,4.17,4.17,0,0,0,1.26.86,13.55,13.55,0,0,0,1.79.66c.66.2,1.35.43,2.05.67a19.38,19.38,0,0,1,2.05.87,6.64,6.64,0,0,1,1.78,1.27,5.72,5.72,0,0,1,1.27,1.88,6.71,6.71,0,0,1,.48,2.67,8.73,8.73,0,0,1-.6,3.25,7.67,7.67,0,0,1-1.75,2.63,8.12,8.12,0,0,1-2.81,1.77,10.57,10.57,0,0,1-3.81.64,12.14,12.14,0,0,1-2.37-.24,13.47,13.47,0,0,1-2.35-.68,14,14,0,0,1-2.13-1A9.13,9.13,0,0,1,185,109l1.72-2.72a1.72,1.72,0,0,1,.54-.49,1.4,1.4,0,0,1,.73-.19,1.94,1.94,0,0,1,1,.32c.34.22.74.46,1.18.72a9.35,9.35,0,0,0,1.52.73,5.88,5.88,0,0,0,2,.32,3.86,3.86,0,0,0,2.45-.69,2.67,2.67,0,0,0,.88-2.21,2.11,2.11,0,0,0-.48-1.43,3.83,3.83,0,0,0-1.27-.91,11.37,11.37,0,0,0-1.77-.63c-.67-.18-1.35-.39-2-.61a15,15,0,0,1-2-.82,6.64,6.64,0,0,1-1.78-1.29,6.16,6.16,0,0,1-1.26-2,8,8,0,0,1-.48-3,7,7,0,0,1,.57-2.75,7.07,7.07,0,0,1,1.66-2.38,8.15,8.15,0,0,1,2.7-1.68,10.08,10.08,0,0,1,3.65-.62,13.85,13.85,0,0,1,2.25.18,11.31,11.31,0,0,1,2.06.53,10.65,10.65,0,0,1,1.84.84,8.66,8.66,0,0,1,1.51,1.11Z"/><path class="cls-2" d="M224,91.64h-7v20.42h-5.81V91.64h-7V87H224Z"/><path class="cls-2" d="M246.91,112.06h-4.5a2,2,0,0,1-1.22-.35,2.25,2.25,0,0,1-.7-.91L239,106.44H229.5L228,110.8a2.06,2.06,0,0,1-.68.87,1.87,1.87,0,0,1-1.21.39H221.6l9.68-25h5.95Zm-9.22-9.57-2.32-6.85c-.17-.43-.35-.94-.55-1.53s-.39-1.23-.58-1.92c-.17.7-.36,1.35-.55,1.94s-.38,1.11-.55,1.55l-2.3,6.81Z"/><path class="cls-2" d="M264.42,91.64h-7v20.42h-5.8V91.64h-7V87h19.88Z"/><path class="cls-2" d="M273.2,91.5v5.84h7.86v4.3H273.2v6h10.26v4.47h-16.1V87h16.1V91.5Z"/></g><g id="Linien"><rect class="cls-2" y="129.64" width="65.2" height="2.61"/><rect class="cls-2" x="218.27" y="129.64" width="65.2" height="2.61"/></g><polygon id="Dach" class="cls-1" points="141.73 5.35 110.72 16.81 110.72 5.79 93.83 -0.44 93.83 23.05 0 57.7 0 75.36 141.73 23.01 283.46 75.36 283.46 57.7 141.73 5.35"/><g id="by_Anke_Köhler" data-name="by Anke Köhler"><path id="K" class="cls-1" d="M161.48,134.3c.27,1.81-2,1.43-3.09,1.45-1.67,0-2.93-1.26-2.1-4.67-2,1.32-3.93,2.59-5.86,3.84-.6.39-1.37,1.06-2.15.49a1.41,1.41,0,0,1-.56-1.39c.26-.71,1.08-.84,1.67-1.2,3.24-2,6.29-3.19,8.63-6.85.16-.25.53-.82.89-.82,2.05,0,3.71-2.4,5-4.26.7-1.66.44-2.29-1.1-2.57a10.65,10.65,0,0,0-9.62,2.93c-.4.38-.83,1.22-1.61.56a1.46,1.46,0,0,1,.13-2.14c2.85-3.18,9.19-4.18,12.4-2.61,1.75.85,2.16,3.18,1.34,5a14.42,14.42,0,0,1-3.83,4.63A4.45,4.45,0,0,0,160,129a54.36,54.36,0,0,0,12.28-9.45c.46,1.1.66,2.09-.13,2.94a46.13,46.13,0,0,1-10,8A11,11,0,0,1,159,132a1.75,1.75,0,0,0-1.34,1.93c0,.62,1,.34,1.6.4S160.7,134.3,161.48,134.3Z"/><path id="h" class="cls-1" d="M174.12,133.91c2.23-.53,5.86-3.45,5.84-3.43.4-.43,1.06-1.19,1.91-.31s.37,1.52-.38,2.14c-1,.83-2.8,1.51-2.4,3a17.63,17.63,0,0,1,4.29-.11,1.41,1.41,0,0,1-1.34,1.92c-1.36.18-3.12.75-3.91-.93-.53-1.13-.91-1.17-1.91-.74a2.7,2.7,0,0,1-3.08-.22c-1.25-1-.87-2.47,0-3.52.42-.53,1-1.15,1.43-1.65.2-.23.84-.64.78-.74-1.95-3,1-1.46,1.83-1.91,1.7-.9,2.95-2.63,4.41-3.82s2.71-2.23,4.13-3.38c.47-.39,1.19-1,1.82-.38a2,2,0,0,1,.44,2.35,8.86,8.86,0,0,1-2.37,3,20.71,20.71,0,0,1-4.94,3.12A18.8,18.8,0,0,0,174.12,133.91Z"/><path class="cls-1" d="M93,132.51c-.47-.64-1-.28-1.33.2s-.75,1-1.14,1.43a15.44,15.44,0,0,1-5.26,3.67c.41-1.88,1.67-2.73,2.64-3.79.67-.73.94-1.44.06-2.17s-1.26.18-1.71.67c-.92,1-1.51,2.36-3.15,2.86.2-1.21.53-2.36-.66-3.15-.86-.56-1.17.31-1.71.59A13.94,13.94,0,0,0,79,136.54c-.38,1.39-2,2-3.35,2.48-.88.3-.52-.52-.41-.91a8,8,0,0,1,3-4c.71-.57,1.39-1.17,2.08-1.75,1.37-1.95,3.27-3.47,4.47-5.55.51-.88.93-1.64-.1-2.57s-1.79-.44-2.57.19a15.2,15.2,0,0,0-3.58,4.36c-2,3.38-4,6.71-7.07,9.22a2,2,0,0,0-.86,1.17c.79.8,1.47.37,2.16-.18.3-.23.47-.64,1,0,1.83,2.19,2.33,2.33,4.56.66,1.39-1,3-1.24,4.48-1.87.37-.16.68-.27.88.21.71,1.71,2,1.85,3.87.89-1.86,3.34-3.42,6.29-5.12,9.16-1.41,2.37-3.07,4.56-5.74,5.71-2.48.45-2.63-.34-2.38-2.65a6.24,6.24,0,0,1,1.27-3A19,19,0,0,1,81.7,143a2.24,2.24,0,0,0,1.43-2.29,29.35,29.35,0,0,0-5.66,3.07,11,11,0,0,0-4.58,5.75,4.37,4.37,0,0,0,1.58,5c.92,1,2,.85,3.2.51,2.8-.81,4.34-3,5.83-5.27,3.38-5.11,5.25-11.18,9.81-15.55C94.07,133.49,93.3,133,93,132.51Z"/><path id="An" class="cls-1" d="M125.14,128.65a1.35,1.35,0,0,0-1.86.06c-1.32,1.22-2.63.76-4,.25a4,4,0,0,1,1-1.55,26,26,0,0,0,4.55-7.48,2.38,2.38,0,0,0-.66-2.66c-.79-.78-1.69-.51-2.53,0a16.36,16.36,0,0,0-4.89,4.37c-3.55,4.5-6.82,9.26-11.32,12.94a29.4,29.4,0,0,1-5,3.74,34.59,34.59,0,0,1,5.77-8.14c.45-.43,1.22-.75.45-1.59s-1.29-.29-1.82.23a27.18,27.18,0,0,0-5.62,7.86c-.49,1-1,2,.12,3s2.22.35,3.09-.32a77,77,0,0,0,6-5.07c1.31-1.24,2.42-2.39,4-.42-.77,1.16-1.6,2.36-2.39,3.59a1.3,1.3,0,0,0,.43,2c.81.54,1.26,0,1.65-.52,1.31-1.83,3-3.41,3.8-5.57.68-1.95,2-2.55,4.2-2.57-1,1.22-1.83,2.19-2.6,3.21-.48.63-1.33,1.26-.28,2.15s1.35-.31,1.8-.74c1.22-1.18,2.34-2.48,3.7-3.94a3.23,3.23,0,0,1-.76,2.38c-.54,1.09-1.12,2.17-1.67,3.26-.28.56.06.94.48,1.23s.57,0,.74-.26a40.26,40.26,0,0,0,4.22-7.27A1.92,1.92,0,0,0,125.14,128.65Zm-12.55,2.84c.36-1.89,1.66-2.82,2.5-4.2C116.23,129.8,116,130.11,112.59,131.49Zm4.23-3.51c-.48-.58-1.72-1.18-1.1-2.06,2-2.86,4-5.8,7.37-7.43.4.9-.1,1.44-.37,2-1.19,2.59-3.09,4.68-4.85,6.88C117.61,127.73,117.27,128.52,116.82,128Z"/><path id="ke" class="cls-1" d="M139.9,134.54c-.56-.06-1.25-.1-1.48-.56s.46-.89.78-1.29a9.32,9.32,0,0,0,1.93-3.08,2,2,0,0,0-.92-2.34c-.77-.54-1.49-.11-2.09.54-.38.41-.64,1-1.51,1.25.39-1.29,1.28-2.5.35-3.59-1.3-1.51-.65-2.76.2-4.11.41-.67.64-1.45,1-2.16.58-1.16.25-2.06-.79-3-.92,2.82-1.94,5.51-3.88,7.54a79.48,79.48,0,0,0-6.08,8,6.5,6.5,0,0,0-.82,1.62,1.28,1.28,0,0,0,.8,1.65c.63.32.72-.46,1-.77s.48-1.1,1.15-1.32c-.15,3,2.32,5.16,4.56,3.54,2-1.47,3.77-1.19,5.9-.45,1.1.39,2.75.85,3.75-1C142.31,134.84,141.11,134.66,139.9,134.54Zm-9.14-3.78c1.3-1.84,2.68-3.63,4.05-5.42a.65.65,0,0,1,.83-.16c.29.17.28.52.2.83-.65,2.41-2.56,4-4,5.79-.06.07-.21.08-.36.13C131.13,131.59,130.25,131.47,130.76,130.76Zm.65,4.39c1.51-2,3.42-3.52,4.83-5.46C135.85,133.89,134.69,135.18,131.41,135.15Z"/><g id="ö"><path id="o" class="cls-1" d="M169.14,127a14.1,14.1,0,0,0-5.7,5.31c-.54,1,.18,1.88.79,2.61s1.31.47,2,.16a18.23,18.23,0,0,0,4.29-2.75,3,3,0,0,0,1.07-2.11,4.91,4.91,0,0,0-.9-2.68C170.32,127,169.82,126.61,169.14,127Zm.9,3a6.49,6.49,0,0,1-3.9,2.62c.66-1.62,2.16-2.28,3.29-3.34a.5.5,0,0,1,.66-.08C170.43,129.47,170.18,129.8,170,130Z"/><path id="ö-Punkte" class="cls-1" d="M175.41,122.07c-.33-.17-.39-.78-.95-.64-.35.41-.09.8.06,1.17.28.73.62,1.43,1.5,1.58.31,0,.5-.13.57-.46C176.81,122.72,176.11,122.42,175.41,122.07Z"/></g><path id="ler" class="cls-1" d="M206.5,126.58a13.4,13.4,0,0,0-5.43.31c-3.28,1.2-3.91,4.27-4.75,7.14-.11.38.17.93-.45,1-1.27.24-2.55.65-3.85-.13,3.65-3.44,3.8-4.09,1.48-6.39a11.43,11.43,0,0,0,3.84-4.31,2.17,2.17,0,0,0-.27-2.72c-.79-.82-1.49,0-2.07.47a47.14,47.14,0,0,0-9.36,9.25c-1.09,1.34-1.48,2.79-.33,4.35s2.58.83,3.83.48a2.32,2.32,0,0,1,2.32.22c2.07,1.48,3.75.54,5.63.1.49-.12.27-.58.34-.91,1-4.44,2.9-7.45,7.67-7.16.67,0,1.35-.07,2,0,2.67.19,3.57-.08,5.22-1.37C210.27,126.8,208.39,126.67,206.5,126.58Zm-13.31-1.16c.61-.55,1.16-.9,1.43-.6s-.18.75-.8,1.3-1.25,1.08-1.51.78S192.58,126,193.19,125.42Zm-3.26,7.79c-.17.79-3,1.7-3.74,1.35-.35-.17-.35-.43-.28-.75.4-1.66,3.35-3.82,5.32-3.79A19.42,19.42,0,0,0,189.93,133.21Z"/></g><g id="Mallorca"><path class="cls-2" d="M96.5,62.79l4,10.12,4-10.12h2.12v12.4h-1.63V70.36l.15-5.21-4.07,10H99.92l-4.06-10L96,70.36v4.83H94.39V62.79Z"/><path class="cls-2" d="M117.33,71.94h-5.2L111,75.19h-1.69L114,62.79h1.43l4.75,12.4h-1.68Zm-4.7-1.33h4.21l-2.11-5.8Z"/><path class="cls-2" d="M124.37,73.85h5.88v1.34h-7.52V62.79h1.64Z"/><path class="cls-2" d="M134.63,73.85h5.87v1.34H133V62.79h1.65Z"/><path class="cls-2" d="M152.22,69.39a7.84,7.84,0,0,1-.61,3.18,4.69,4.69,0,0,1-1.74,2.07,4.79,4.79,0,0,1-7-2,7.31,7.31,0,0,1-.64-3.09v-.89a7.61,7.61,0,0,1,.62-3.16,4.61,4.61,0,0,1,4.36-2.83,4.83,4.83,0,0,1,2.63.72,4.66,4.66,0,0,1,1.75,2.09,7.84,7.84,0,0,1,.61,3.18Zm-1.63-.8a5.59,5.59,0,0,0-.88-3.39A2.93,2.93,0,0,0,147.23,64a2.9,2.9,0,0,0-2.44,1.17,5.51,5.51,0,0,0-.92,3.28v.91a5.58,5.58,0,0,0,.9,3.36,3.16,3.16,0,0,0,4.93.07,5.57,5.57,0,0,0,.89-3.31Z"/><path class="cls-2" d="M160.09,70.17h-2.91v5h-1.64V62.79h4.1a4.87,4.87,0,0,1,3.22,1A3.45,3.45,0,0,1,164,66.52a3.35,3.35,0,0,1-.63,2,3.65,3.65,0,0,1-1.74,1.28l2.91,5.26v.11h-1.75Zm-2.91-1.34h2.51a2.85,2.85,0,0,0,1.94-.63,2.12,2.12,0,0,0,.72-1.68,2.25,2.25,0,0,0-.69-1.77,2.88,2.88,0,0,0-2-.62h-2.5Z"/><path class="cls-2" d="M176.27,71.25a4.57,4.57,0,0,1-1.45,3,4.79,4.79,0,0,1-3.25,1.07,4.37,4.37,0,0,1-3.52-1.58,6.34,6.34,0,0,1-1.33-4.21V68.38a7.05,7.05,0,0,1,.62-3,4.63,4.63,0,0,1,1.75-2,4.87,4.87,0,0,1,2.62-.7,4.49,4.49,0,0,1,3.17,1.1,4.62,4.62,0,0,1,1.39,3.06h-1.64a3.59,3.59,0,0,0-.93-2.16,2.8,2.8,0,0,0-2-.66,2.9,2.9,0,0,0-2.45,1.16,5.26,5.26,0,0,0-.89,3.29v1.21a5.5,5.5,0,0,0,.84,3.21A2.73,2.73,0,0,0,171.57,74a3.16,3.16,0,0,0,2.09-.62,3.38,3.38,0,0,0,1-2.15Z"/><path class="cls-2" d="M186.22,71.94H181l-1.16,3.25h-1.69l4.74-12.4h1.43l4.74,12.4H187.4Zm-4.7-1.33h4.21l-2.11-5.8Z"/></g></svg>